<svg xmlns="http://www.w3.org/2000/svg"  viewBox="0 0 48 48" width="192px" height="192px" baseProfile="basic"><linearGradient id="3XlX3GMrpAeq-aA8Lw5V2a" x1="-17.126" x2="51.657" y1="-12.126" y2="56.657" gradientUnits="userSpaceOnUse"><stop offset="0" stop-color="#262626" stop-opacity="0"/><stop offset="1" stop-color="#262626" stop-opacity=".8"/></linearGradient><path fill="url(#3XlX3GMrpAeq-aA8Lw5V2a)" d="M36,45H8V7c0-2.209,1.791-4,4-4h18l10,10v28C40,43.209,38.209,45,36,45z"/><linearGradient id="3XlX3GMrpAeq-aA8Lw5V2b" x1="21.355" x2="41.202" y1="-.645" y2="19.202" gradientUnits="userSpaceOnUse"><stop offset="0" stop-color="#262626" stop-opacity="0"/><stop offset="1" stop-color="#262626" stop-opacity=".8"/></linearGradient><polygon fill="url(#3XlX3GMrpAeq-aA8Lw5V2b)" points="40,13 30,13 30,3"/><linearGradient id="3XlX3GMrpAeq-aA8Lw5V2c" x1="7.324" x2="32.015" y1="7.324" y2="32.015" gradientUnits="userSpaceOnUse"><stop offset="0" stop-color="#262626" stop-opacity="0"/><stop offset="1" stop-color="#262626" stop-opacity=".8"/></linearGradient><path fill="url(#3XlX3GMrpAeq-aA8Lw5V2c)" d="M31,26H15v-2c0-1.105,0.895-2,2-2h16v2C33,25.105,32.105,26,31,26z"/><linearGradient id="3XlX3GMrpAeq-aA8Lw5V2d" x1="7.324" x2="32.015" y1="14.324" y2="39.015" gradientUnits="userSpaceOnUse"><stop offset="0" stop-color="#262626" stop-opacity="0"/><stop offset="1" stop-color="#262626" stop-opacity=".8"/></linearGradient><path fill="url(#3XlX3GMrpAeq-aA8Lw5V2d)" d="M31,33H15v-2c0-1.105,0.895-2,2-2h16v2C33,32.105,32.105,33,31,33z"/><linearGradient id="3XlX3GMrpAeq-aA8Lw5V2e" x1="10.111" x2="24.753" y1="28.111" y2="42.753" gradientUnits="userSpaceOnUse"><stop offset="0" stop-color="#262626" stop-opacity="0"/><stop offset="1" stop-color="#262626" stop-opacity=".8"/></linearGradient><path fill="url(#3XlX3GMrpAeq-aA8Lw5V2e)" d="M23,40h-8v-2c0-1.105,0.895-2,2-2h8v2C25,39.105,24.105,40,23,40z"/></svg>